<svg width="1901" height="1958" viewBox="0 0 1901 1958" fill="none" xmlns="http://www.w3.org/2000/svg">
<path d="M277.693 1624.38L136.887 1380.5L277.693 1136.62L559.307 1136.62L700.113 1380.5L559.307 1624.38L277.693 1624.38Z" stroke="#ADCBCD" stroke-width="5"/>
<path d="M1086.69 1869.38L945.887 1625.5L1086.69 1381.62L1368.31 1381.62L1509.11 1625.5L1368.31 1869.38L1086.69 1869.38Z" stroke="#ADCBCD" stroke-width="5"/>
<path d="M972.693 812.384L831.887 568.5L972.693 324.616L1254.31 324.616L1395.11 568.5L1254.31 812.384L972.693 812.384Z" stroke="#ADCBCD" stroke-width="5"/>
<path d="M143.693 528.384L2.88674 284.5L143.693 40.6158L425.307 40.6158L566.113 284.5L425.307 528.384L143.693 528.384Z" stroke="#ADCBCD" stroke-width="5"/>
<g filter="url(#filter0_d_56_69)">
<path d="M1228 720.5L1331.25 541.666L1537.75 541.666L1641 720.5L1537.75 899.334L1331.25 899.334L1228 720.5Z" fill="#1E6C76" fill-opacity="0.2" shape-rendering="crispEdges"/>
</g>
<g filter="url(#filter1_d_56_69)">
<path d="M290 1518.5L393.25 1339.67L599.75 1339.67L703 1518.5L599.75 1697.33L393.25 1697.33L290 1518.5Z" fill="#1E6C76" fill-opacity="0.2" shape-rendering="crispEdges"/>
</g>
<defs>
<filter id="filter0_d_56_69" x="988" y="301.666" width="913" height="857.668" filterUnits="userSpaceOnUse" color-interpolation-filters="sRGB">
<feFlood flood-opacity="0" result="BackgroundImageFix"/>
<feColorMatrix in="SourceAlpha" type="matrix" values="0 0 0 0 0 0 0 0 0 0 0 0 0 0 0 0 0 0 127 0" result="hardAlpha"/>
<feOffset dx="10" dy="10"/>
<feGaussianBlur stdDeviation="125"/>
<feComposite in2="hardAlpha" operator="out"/>
<feColorMatrix type="matrix" values="0 0 0 0 0.117647 0 0 0 0 0.423529 0 0 0 0 0.462745 0 0 0 0.25 0"/>
<feBlend mode="normal" in2="BackgroundImageFix" result="effect1_dropShadow_56_69"/>
<feBlend mode="normal" in="SourceGraphic" in2="effect1_dropShadow_56_69" result="shape"/>
</filter>
<filter id="filter1_d_56_69" x="50" y="1099.67" width="913" height="857.668" filterUnits="userSpaceOnUse" color-interpolation-filters="sRGB">
<feFlood flood-opacity="0" result="BackgroundImageFix"/>
<feColorMatrix in="SourceAlpha" type="matrix" values="0 0 0 0 0 0 0 0 0 0 0 0 0 0 0 0 0 0 127 0" result="hardAlpha"/>
<feOffset dx="10" dy="10"/>
<feGaussianBlur stdDeviation="125"/>
<feComposite in2="hardAlpha" operator="out"/>
<feColorMatrix type="matrix" values="0 0 0 0 0.117647 0 0 0 0 0.423529 0 0 0 0 0.462745 0 0 0 0.25 0"/>
<feBlend mode="normal" in2="BackgroundImageFix" result="effect1_dropShadow_56_69"/>
<feBlend mode="normal" in="SourceGraphic" in2="effect1_dropShadow_56_69" result="shape"/>
</filter>
</defs>
</svg>
